<?xml version="1.0" encoding="UTF-8"?>
<svg id="logo" xmlns="http://www.w3.org/2000/svg" version="1.1" viewBox="0 0 441.4 233.7">
  <defs>
    <style>
      .cls-1 {
        fill: #c63235;
        stroke: #c63235;
        stroke-width: 19.8px;
      }

      .cls-1, .cls-2, .cls-3, .cls-4, .cls-5, .cls-6 {
        stroke-miterlimit: 10;
      }

      .cls-2 {
        stroke: #997858;
        stroke-width: .4px;
      }

      .cls-2, .cls-3, .cls-4, .cls-5, .cls-6 {
        fill: none;
      }

      .cls-3 {
        stroke: #89674c;
        stroke-linecap: round;
        stroke-width: 2.8px;
      }

      .cls-7 {
        fill: #bbddf7;
      }

      .cls-7, .cls-8, .cls-9, .cls-10, .cls-11, .cls-12, .cls-13, .cls-14, .cls-15, .cls-16, .cls-17, .cls-18, .cls-19, .cls-20, .cls-21, .cls-22 {
        stroke-width: 0px;
      }

      .cls-8 {
        fill: #17647f;
      }

      .cls-4 {
        stroke: #603b22;
      }

      .cls-9 {
        fill: #f4dec8;
      }

      .cls-10 {
        fill: #6aa843;
      }

      .cls-5 {
        stroke: #226751;
      }

      .cls-11 {
        fill: #88c5ee;
      }

      .cls-12 {
        fill: #895933;
      }

      .cls-13 {
        fill: #1a7ba6;
      }

      .cls-6 {
        stroke: #598f40;
        stroke-width: .3px;
      }

      .cls-23 {
        fill: #030402;
        stroke: #030402;
        stroke-miterlimit: 11;
        stroke-width: 3.4px;
      }

      .cls-14 {
        fill: #1b9779;
      }

      .cls-15 {
        fill: #d7b487;
      }

      .cls-16 {
        fill: #7bb9dc;
      }

      .cls-17 {
        fill: #ca484d;
      }

      .cls-24 {
        opacity: .7;
      }

      .cls-18 {
        fill: #dbedfc;
      }

      .cls-19 {
        fill: #ad8b66;
      }

      .cls-20 {
        fill: #d77f4f;
      }

      .cls-21 {
        fill: #8e6c55;
        opacity: .5;
      }

      .cls-22 {
        fill: #fff;
      }
    </style>
  </defs>
  <g>
    <g>
      <rect class="cls-18" x="240.4" y="72" width="21.4" height="29.5"/>
      <path class="cls-16" d="M246.7,58.6h19.8c1.1,0,1.9.9,1.9,1.9v1.6c0,.5-.4,1-1,1h-21.7c-.5,0-1-.4-1-1v-1.6c0-1.1.9-1.9,1.9-1.9Z"/>
      <rect class="cls-7" x="261.8" y="72" width="11.1" height="29.5"/>
      <polyline class="cls-11" points="267.6 62.9 261.8 72 272.9 72 267.6 62.9"/>
      <polygon class="cls-11" points="245.6 62.9 240.4 72 261.8 72 267.6 62.9 245.6 62.9"/>
      <polygon class="cls-16" points="261.8 72 267.6 72 267.6 62.9 261.8 72"/>
    </g>
    <g>
      <rect class="cls-13" x="240.4" y="82" width="21.4" height="6.3"/>
      <rect class="cls-8" x="261.8" y="82" width="11.1" height="6.3"/>
    </g>
  </g>
  <g>
    <g>
      <ellipse class="cls-9" cx="162.3" cy="73.1" rx="44.6" ry="37.2"/>
      <path class="cls-3" d="M153.1,80.6c.9,3,3.6,5.1,6.7,5.3,3.3.2,6.3-1.9,7.3-5.1"/>
      <path class="cls-23" d="M215.4,108.5c-.1,11.1.3,27.4-15.2,30-.8-13.6-3.7-26.9-15.7-34.5,12.8-7.6,20.9-22.4,18.8-37.4-.4-10.3-32.1-8.9-37.2-34.4s-1.1-.7-1.3,0c-4.3,17.5-22.5,27.9-39.9,27.4-3,0-5.6,1.9-6.2,4.9-3,15.4,5.2,32,19,39.8-12,7.4-15.2,20.5-16.1,34.2-15.6-2.5-15.2-18.9-15.3-30,0-20.3-.9-38.4,2.2-60.5,13.1-36.8,69-40,95.2-15.9,12.6,11,11.4,33.5,11.7,46.7.4,11.6.6,18.9.1,29.7Z"/>
      <path class="cls-3" d="M176.6,71.4c-.4-3.7,2-6.7,4.5-7,2.7-.3,6.2,2.6,6,7"/>
      <path class="cls-10" d="M195.3,126.9c1.1,0,2.3,0,3.7.1-1.6-10.1-5.2-19.3-14.4-25-1.7,1-3.5,2-5.3,2.8-1.9.8-3.8,1.5-5.8,2.1-2,.6-4,1-6.2,1.3-2.1.3-4.3.4-6.4.4s-4.2-.1-6.3-.4c-2.1-.3-4.1-.7-6-1.2-2-.5-3.9-1.2-5.7-2-1.8-.8-5.3-2.7-5.3-2.7-12,7.4-15.2,20.5-16.1,34.2h0c-.1,2.5-.4,7-.2,10,.2,4.3.8,8.2,1.5,11.5h46.4c0-1-.1-2.1-.1-3.2,0-18.3,12.1-27.9,26.2-27.9Z"/>
    </g>
    <path class="cls-3" d="M133.5,71.4c-.4-3.7,2-6.7,4.5-7,2.7-.3,6.2,2.6,6,7"/>
  </g>
  <g>
    <g>
      <ellipse class="cls-9" cx="313.7" cy="73.1" rx="41.3" ry="37.2"/>
      <path class="cls-3" d="M286.9,73.2c-.4-3.7,2-6.7,4.5-7,2.7-.3,6.2,2.6,6,7"/>
      <path class="cls-3" d="M330,73.3c-.4-3.7,2-6.7,4.5-7,2.7-.3,6.2,2.6,6,7"/>
      <path class="cls-10" d="M336.7,103.9c2.9,2.3,8.9,8.1,12.3,14.1,3.8,6.6,4.8,12.4,5.7,17.8.9,5.4,1.6,13.6,0,23.6h-81.1c-1.6-10-.9-18.3,0-23.6.9-5.3,1.9-11.2,5.7-17.8,3.4-6,12.8-13.2,12.8-13.2,6.3,3.5,13.7,5.5,21.6,5.5s16.5-2.3,23.1-6.3"/>
      <g>
        <circle class="cls-20" cx="281.9" cy="47.7" r="7.9"/>
        <circle class="cls-20" cx="286.9" cy="55.6" r="7.9"/>
        <circle class="cls-20" cx="336.5" cy="34.6" r="7.9"/>
        <circle class="cls-20" cx="348.4" cy="47.7" r="7.9"/>
        <circle class="cls-20" cx="348.4" cy="58.2" r="7.9"/>
        <circle class="cls-20" cx="278.2" cy="55.6" r="7.9"/>
        <circle class="cls-20" cx="292.5" cy="50.3" r="7.9"/>
        <circle class="cls-20" cx="306.3" cy="55.6" r="7.9"/>
        <circle class="cls-20" cx="301.5" cy="42.4" r="7.9"/>
        <circle class="cls-20" cx="291.7" cy="39.9" r="7.9"/>
        <circle class="cls-20" cx="314.2" cy="44.3" r="7.9"/>
        <circle class="cls-20" cx="301.5" cy="32" r="7.9"/>
        <circle class="cls-20" cx="312.9" cy="34.6" r="7.9"/>
        <circle class="cls-20" cx="325" cy="36.4" r="7.9"/>
        <circle class="cls-20" cx="332.9" cy="42.4" r="7.9"/>
        <circle class="cls-20" cx="340.7" cy="42.4" r="7.9"/>
        <circle class="cls-20" cx="340.7" cy="50.3" r="7.9"/>
        <circle class="cls-20" cx="334.1" cy="50.3" r="7.9"/>
        <circle class="cls-20" cx="325" cy="32" r="7.9"/>
        <circle class="cls-20" cx="322" cy="50.3" r="7.9"/>
        <circle class="cls-20" cx="320.8" cy="52.1" r="7.9"/>
      </g>
    </g>
    <path class="cls-3" d="M306.5,82.4c.9,3,3.6,5.1,6.7,5.3,3.3.2,6.3-1.9,7.3-5.1"/>
  </g>
  <g>
    <path class="cls-17" d="M269.9,85.7c.6-.2,4.2-1.2,7.3.2.5.2,2.5,1.1,3.7,3.3,2.3,4-.3,8.8-.7,9.5-2.7,4.8-7.9,6-8.9,6.2-1.7.3-6.6,1-10.6-2.4-1.1-.9-3.7-3.5-4-7.6-.2-3.5,1.4-7.8,4.8-9.4,2.3-1.1,4.8-.8,5.2-.7,1.1.2,2.8.8,3.4,1Z"/>
    <path class="cls-10" d="M275.9,78.2c-.5,0-3.8.3-5.9,2.1-1.8,1.5-2.1,3.6-.8,5.4,2.8.2,5.5-.6,7-2,1.7-1.6,1.6-3.8-.3-5.4Z"/>
    <path class="cls-6" d="M269.2,85.7s6.7-5,6.7-7.5"/>
    <g class="cls-24">
      <path class="cls-22" d="M266.9,87.1c-.4-.5-1-.7-1.6-.8-1.2-.3-2.3-.3-3.4.3-.8.4-1.5,1.4-1.7,2.3-.3.9-.4,1.4-.4,2.3,0,.6,0,1.3.3,1.9.3.6.9,1,1.6.9.4-.1.9-.4,1-.8,1.3-4.6,2.8-3,4.4-4.2v-.2c.5-.4.4-1.2,0-1.7Z"/>
    </g>
  </g>
  <g>
    <path class="cls-12" d="M245,92.6c-.9-8.2-2.1-11.1-3.7-15.4-3.1-7.9-6.1-13.2-8.3-15.4-2.5-2.4-5.7-3.8-9.1-3.1-3.5.7-5.5,3.8-6.7,6.6-2.6,6.3-.8,13.6,0,17.1s3.2,11.2,5.5,17.9l24.7,4.8-2.2-12.6Z"/>
    <path class="cls-4" d="M223.2,74.6c.5.3,2.1,1,4.1.6,2.5-.5,3.8-2.3,4.1-2.7"/>
    <path class="cls-4" d="M225.1,83.7c.5.3,2.1,1,4.1.6,2.5-.5,3.8-2.3,4.1-2.7"/>
    <path class="cls-4" d="M227.3,92.8c.5.3,2.1,1,4.1.6,2.5-.5,3.8-2.3,4.1-2.7"/>
  </g>
  <g>
    <path class="cls-14" d="M224.1,102.4c1.4-1.6.6-2.7.5-13.4,0-7.3.3-10-1.9-12.2-1.4-1.4-3.8-2.6-5.5-1.8-2.4,1.1-1.8,5.8-3.1,6-1.1.1-1.5-2.8-4.2-5.7-.8-.9-3.6-3.7-7.9-4.3-1.6-.2-4.3-.6-6.4,1.2-1.6,1.4-2.5,3.6-2.3,5.7.5,4.2,5.8,6.8,5.5,7.2-.2.3-4.3-3.3-6.5-2.2-1.7.9-2,4.5-1.4,7.1,2,8.5,14.8,11.9,18.4,12.8,4.9,1.3,11.7,3.1,14.8-.3Z"/>
    <line class="cls-5" x1="224.1" y1="102.4" x2="200.4" y2="77.3"/>
    <line class="cls-5" x1="219.2" y1="81.8" x2="218.3" y2="96.3"/>
    <line class="cls-5" x1="195.6" y1="89.9" x2="212.7" y2="90.4"/>
  </g>
  <g>
    <polygon class="cls-15" points="281 171.5 210 170.5 200 100.4 281 100.4 281 171.5"/>
    <rect class="cls-19" x="254" y="100.4" width="27" height="71"/>
    <polygon class="cls-15" points="206.9 95.5 210.3 98 213.7 100.4 206.9 100.4 200 100.4 203.4 98 206.9 95.5"/>
    <polygon class="cls-15" points="220.3 95.5 223.8 98 227.2 100.4 220.3 100.4 213.5 100.4 216.9 98 220.3 95.5"/>
    <polygon class="cls-15" points="233.8 95.5 237.2 98 240.7 100.4 233.8 100.4 226.9 100.4 230.3 98 233.8 95.5"/>
    <polygon class="cls-15" points="247.2 95.5 250.7 98 254.1 100.4 247.2 100.4 240.4 100.4 243.8 98 247.2 95.5"/>
    <polygon class="cls-19" points="260.7 95.5 264.1 98 267.6 100.4 260.7 100.4 253.8 100.4 257.3 98 260.7 95.5"/>
    <polygon class="cls-19" points="274.2 95.5 277.6 98 281 100.4 274.2 100.4 267.3 100.4 270.7 98 274.2 95.5"/>
    <line class="cls-2" x1="254" y1="171.5" x2="267.6" y2="164"/>
    <polyline class="cls-21" points="267.6 164 281 171.5 281 100.4 274.2 95.5 267.4 100.3 267.6 164"/>
    <line class="cls-2" x1="267.6" y1="164" x2="281" y2="171.5"/>
    <line class="cls-2" x1="267.6" y1="100.4" x2="267.6" y2="164"/>
  </g>
  <g>
    <path class="cls-1" d="M86.8,144.2c3.6-9.1,9-16.4,16.7-16.4s16.7,5.9,16.7,15.1-9.2,28.4-19.4,34c6.8,4.2,9.9,14.3,12.7,14.3s4.2-.8,5.6-2.5c.8.8,1.3,1.8,1.3,2.8,0,4.2-7.2,8.8-14.5,8.8-14.3,0-13.5-21-19.3-21,0-2.2.8-3.5,4.5-4,6-3.2,9.8-21.2,9.8-30.9s-.6-6.4-1.8-6.4c-8.4,0-15,30.5-15,46.5s.3,10.4,1.1,14c-1.8.9-4.2,1-7,1-15.7,0,1.8-67.3-19.2-67.3s-15.5,9.6-15.5,19.8,5.4,23.4,12.6,23.4,2.1.3,2.1.7-.2.6-.5.8c-3.1,3.1-6.9,4.6-10.8,4.6-10.5,0-21.5-10.7-21.5-27.2s9.8-27.8,26.2-27.8,35.4,6.4,35.4,14.4,0,1.8-.2,3.1Z"/>
    <path class="cls-1" d="M160.4,168.6c0,2.4,0,5.5,0,8.4,0,6.1.4,12,3,12s7.8-8.4,9.9-13.6c2,1.2,3.3,3.7,3.3,6.4,0,7.7-9.3,14.9-17.6,14.9s-7.8-1.1-10-7.8c-2.7,4.6-7.2,7.9-14.6,7.9s-10.4-6.5-10.4-14,7-22.6,22.9-22.6,13.5,3.5,13.5,8.3ZM146.7,172c0-1.7,0-4.4-1.8-4.4-4.3,0-6.8,8.9-6.8,15.4s.8,6.6,2.6,6.6c5.3,0,6-13.3,6-17.5Z"/>
    <path class="cls-1" d="M187.4,151.8c0,11.6,5.6,24.1,12.4,24.1s1.9.4,1.9.9,0,.4-.3.6c-3.2,3.2-7,4.7-10.9,4.7-10.5,0-21.4-11.2-21.4-27.2s12.1-27.9,26.2-27.9,36.6,5,36.6,16.6v7.5c0,14.3.6,41.6,5.5,41.6,7.5,0,9.5-14.5,9.5-28.7s-1.5-24-2.2-26c0,0,.2,0,.3,0,2.1-.9,4.5-1.6,6.9-1.6,6.2,0,12.1,4.2,12.1,16.7,0,18,.5,39.6,6.5,39.6s8.9-12,8.9-25.5-3.1-34.5-5.1-37c3.3-2.1,8.9-2.4,11.9-2.4s8.7,5.6,8.7,13.4c0,28.1-11.9,59.6-26.6,59.6s-16.7-4.5-18.3-11c-4.3,7-9.6,11.7-15.4,11.7s-16.7-6.3-16.7-13.7.2-6.6.2-10.9c0-16.7-1.6-44.2-15.5-44.2s-15.3,9.3-15.3,19.2Z"/>
    <path class="cls-1" d="M313,165.7c0,1.9-.8,7.9-.8,13.2s.7,10.1,3.6,10.1,7.8-8.3,9.9-13.5c2,1.1,3.3,3.7,3.3,6.4,0,7.8-9.4,14.9-17.9,14.9-12.1,0-13.5-15.8-13.5-24.9s7.5-10.8,11.9-10.8,3.4,1.1,3.4,4.6ZM299,152.1c0-4.2,4.2-9.2,10.4-9.2s6.1,3,6.1,6.3-3.1,8.3-9.4,8.3-7-2.5-7-5.5Z"/>
    <path class="cls-1" d="M370.4,171.5c0,5.8-6.7,10-13.6,11.3-2.2,7.5-8.4,14.1-18.4,14.1s-14.1-8.1-14.1-16.7,6.3-20,19.7-20,13.5,7.1,13.8,15.1c4.6-1.5,8.8-4.2,11.4-8,.9,1,1.2,2.7,1.2,4.3ZM346.8,182.7c-3.7-.6-6.3-1.9-8-3.5,0,5.3,1.4,10.3,4.1,10.3s3.3-3,4-6.8ZM342.5,167.7c-1.1.4-1.9,1.9-1.9,3.4,0,2.4,1.7,5.2,6.4,5.6-.2-4.8-1.5-9.2-4-9.2s-.4,0-.6,0Z"/>
    <path class="cls-1" d="M393.2,181.8c0,7.6-9.2,14.7-17.3,14.7s-13.8-17.6-13.8-47.3,9.3-19.5,16-19.5,8.3,3.5,8.3,7.1-.7,1-1.2,1c-6,0-9.2,18.6-9.2,33.4s1.3,17.7,4.1,17.7,7.7-8.3,9.8-13.4c1.9,1.1,3.2,3.7,3.2,6.3Z"/>
    <path class="cls-1" d="M404.9,165.7c0,1.9-.8,7.9-.8,13.2s.7,10.1,3.6,10.1,7.8-8.3,9.9-13.5c2,1.1,3.3,3.7,3.3,6.4,0,7.8-9.4,14.9-17.9,14.9-12.1,0-13.5-15.8-13.5-24.9s7.5-10.8,11.9-10.8,3.4,1.1,3.4,4.6ZM391,152.1c0-4.2,4.2-9.2,10.4-9.2s6.1,3,6.1,6.3-3.1,8.3-9.4,8.3-7-2.5-7-5.5Z"/>
  </g>
  <g>
    <path class="cls-22" d="M86.8,144.1c3.6-9.1,9-16.4,16.7-16.4s16.7,5.9,16.7,15.1-9.2,28.4-19.4,34c6.8,4.2,9.9,14.3,12.7,14.3s4.2-.8,5.6-2.5c.8.8,1.3,1.8,1.3,2.8,0,4.2-7.2,8.8-14.5,8.8-14.3,0-13.5-21-19.3-21,0-2.2.8-3.5,4.5-4,6-3.2,9.8-21.2,9.8-30.9s-.6-6.4-1.8-6.4c-8.4,0-15,30.5-15,46.5s.3,10.4,1.1,14c-1.8.9-4.2,1-7,1-15.7,0,1.8-67.3-19.2-67.3s-15.5,9.6-15.5,19.8,5.4,23.4,12.6,23.4,2.1.3,2.1.7-.2.6-.5.8c-3.1,3.1-6.9,4.6-10.8,4.6-10.5,0-21.5-10.7-21.5-27.2s9.8-27.8,26.2-27.8,35.4,6.4,35.4,14.4,0,1.8-.2,3.1Z"/>
    <path class="cls-22" d="M160.4,168.5c0,2.4,0,5.5,0,8.4,0,6.1.4,12,3,12s7.8-8.4,9.9-13.6c2,1.2,3.3,3.7,3.3,6.4,0,7.7-9.3,14.9-17.6,14.9s-7.8-1.1-10-7.8c-2.7,4.6-7.2,7.9-14.6,7.9s-10.4-6.5-10.4-14,7-22.6,22.9-22.6,13.5,3.5,13.5,8.3ZM146.7,171.9c0-1.7,0-4.4-1.8-4.4-4.3,0-6.8,8.9-6.8,15.4s.8,6.6,2.6,6.6c5.3,0,6-13.3,6-17.5Z"/>
    <path class="cls-22" d="M187.4,151.7c0,11.6,5.6,24.1,12.4,24.1s1.9.4,1.9.9,0,.4-.3.6c-3.2,3.2-7,4.7-10.9,4.7-10.5,0-21.4-11.2-21.4-27.2s12.1-27.9,26.2-27.9,36.6,5,36.6,16.6v7.5c0,14.3.6,41.6,5.5,41.6,7.5,0,9.5-14.5,9.5-28.7s-1.5-24-2.2-26c0,0,.2,0,.3,0,2.1-.9,4.5-1.6,6.9-1.6,6.2,0,12.1,4.2,12.1,16.7,0,18,.5,39.6,6.5,39.6s8.9-12,8.9-25.5-3.1-34.5-5.1-37c3.3-2.1,8.9-2.4,11.9-2.4s8.7,5.6,8.7,13.4c0,28.1-11.9,59.6-26.6,59.6s-16.7-4.5-18.3-11c-4.3,7-9.6,11.7-15.4,11.7s-16.7-6.3-16.7-13.7.2-6.6.2-10.9c0-16.7-1.6-44.2-15.5-44.2s-15.3,9.3-15.3,19.2Z"/>
    <path class="cls-22" d="M313,165.6c0,1.9-.8,7.9-.8,13.2s.7,10.1,3.6,10.1,7.8-8.3,9.9-13.5c2,1.1,3.3,3.7,3.3,6.4,0,7.8-9.4,14.9-17.9,14.9-12.1,0-13.5-15.8-13.5-24.9s7.5-10.8,11.9-10.8,3.4,1.1,3.4,4.6ZM299,152c0-4.2,4.2-9.2,10.4-9.2s6.1,3,6.1,6.3-3.1,8.3-9.4,8.3-7-2.5-7-5.5Z"/>
    <path class="cls-22" d="M370.4,171.4c0,5.8-6.7,10-13.6,11.3-2.2,7.5-8.4,14.1-18.4,14.1s-14.1-8.1-14.1-16.7,6.3-20,19.7-20,13.5,7.1,13.8,15.1c4.6-1.5,8.8-4.2,11.4-8,.9,1,1.2,2.7,1.2,4.3ZM346.8,182.6c-3.7-.6-6.3-1.9-8-3.5,0,5.3,1.4,10.3,4.1,10.3s3.3-3,4-6.8ZM342.5,167.6c-1.1.4-1.9,1.9-1.9,3.4,0,2.4,1.7,5.2,6.4,5.6-.2-4.8-1.5-9.2-4-9.2s-.4,0-.6,0Z"/>
    <path class="cls-22" d="M393.2,181.7c0,7.6-9.2,14.7-17.3,14.7s-13.8-17.6-13.8-47.3,9.3-19.5,16-19.5,8.3,3.5,8.3,7.1-.7,1-1.2,1c-6,0-9.2,18.6-9.2,33.4s1.3,17.7,4.1,17.7,7.7-8.3,9.8-13.4c1.9,1.1,3.2,3.7,3.2,6.3Z"/>
    <path class="cls-22" d="M404.9,165.6c0,1.9-.8,7.9-.8,13.2s.7,10.1,3.6,10.1,7.8-8.3,9.9-13.5c2,1.1,3.3,3.7,3.3,6.4,0,7.8-9.4,14.9-17.9,14.9-12.1,0-13.5-15.8-13.5-24.9s7.5-10.8,11.9-10.8,3.4,1.1,3.4,4.6ZM391,152c0-4.2,4.2-9.2,10.4-9.2s6.1,3,6.1,6.3-3.1,8.3-9.4,8.3-7-2.5-7-5.5Z"/>
  </g>
</svg>